<?xml version="1.0" encoding="UTF-8" standalone="no"?>
<svg width="85px" height="29px" viewBox="0 0 85 29" version="1.1" xmlns="http://www.w3.org/2000/svg" xmlns:xlink="http://www.w3.org/1999/xlink" xmlns:sketch="http://www.bohemiancoding.com/sketch/ns">
    <title>Slice 1</title>
    <description>Created with Sketch (http://www.bohemiancoding.com/sketch)</description>
    <defs></defs>
    <g id="Page 1" stroke="none" stroke-width="1" fill="none" fill-rule="evenodd">
        <g id="Layer_1" fill="#FFFFFF">
            <g id="Group">
                <g id="Shape">
                    <path d="M3.182,28.35 L3.182,12.611 L0.504,12.611 L0.504,7.01 L3.182,7.01 L3.182,0.707 L9.332,0.707 L9.332,7.01 L12.008,7.01 L12.008,12.611 L9.332,12.611 L9.332,22.711 L11.382,22.711 L11.382,28.35 L3.182,28.35 L3.182,28.35 Z M3.182,28.35"></path>
                    <path d="M35.449,7.011 L35.449,22.748 L38.051,22.748 L38.051,28.35 L29.737,28.35 L29.737,25.559 C29.041,26.61 28.182,27.395 27.165,27.913 C26.148,28.431 24.94,28.69 23.549,28.69 C21.183,28.69 19.361,27.992 18.081,26.592 C16.802,25.194 16.164,23.186 16.164,20.565 L16.164,12.649 L13.487,12.649 L13.487,7.01 L22.352,7.01 L22.352,18.742 C22.352,20.337 22.614,21.47 23.139,22.138 C23.664,22.81 24.528,23.146 25.731,23.146 C26.856,23.146 27.754,22.75 28.426,21.958 C29.096,21.167 29.432,20.095 29.432,18.74 L29.432,12.646 L26.983,12.646 L26.983,7.007 L35.45,7.007 L35.45,7.011 L35.449,7.011 Z M35.449,7.011"></path>
                    <path d="M41.711,28.35 L41.711,12.611 L39.033,12.611 L39.033,7.01 L41.711,7.01 L41.711,0.707 L47.861,0.707 L47.861,7.01 L50.537,7.01 L50.537,12.611 L47.861,12.611 L47.861,22.711 L49.911,22.711 L49.911,28.35 L41.711,28.35 L41.711,28.35 Z M41.711,28.35"></path>
                    <path d="M52.793,21.78 L58.545,21.78 C58.583,22.54 58.809,23.118 59.219,23.517 C59.63,23.914 60.223,24.115 60.994,24.115 C61.726,24.115 62.287,23.954 62.674,23.631 C63.061,23.309 63.253,22.844 63.253,22.236 C63.253,21.361 62.297,20.698 60.387,20.242 C59.641,20.064 59.051,19.914 58.621,19.787 C56.607,19.218 55.128,18.398 54.18,17.329 C53.231,16.26 52.755,14.877 52.755,13.181 C52.755,11.168 53.432,9.545 54.786,8.312 C56.14,7.078 57.925,6.461 60.14,6.461 C61.025,6.461 61.82,6.568 62.521,6.783 C63.224,6.999 63.892,7.346 64.525,7.827 L64.525,6.935 L68.966,6.935 L68.966,12.991 L63.327,12.991 C63.214,12.295 63.005,11.798 62.701,11.501 C62.397,11.203 61.948,11.055 61.352,11.055 C60.746,11.055 60.253,11.203 59.88,11.501 C59.507,11.798 59.32,12.181 59.32,12.649 C59.32,13.244 59.529,13.706 59.945,14.035 C60.364,14.364 61.377,14.731 62.984,15.136 C65.64,15.82 67.47,16.661 68.468,17.661 C69.468,18.661 69.968,20.07 69.968,21.894 C69.968,23.968 69.243,25.656 67.794,26.953 C66.345,28.251 64.47,28.898 62.166,28.898 C61.229,28.898 60.378,28.765 59.612,28.501 C58.846,28.234 58.128,27.823 57.458,27.268 L57.458,28.35 L52.788,28.35 L52.788,21.78 L52.793,21.78 L52.793,21.78 Z M52.793,21.78"></path>
                </g>
                <path d="M84.121,14.083 L80.243,14.083 L80.243,10.203 L74.822,10.203 L74.822,14.083 L70.943,14.083 L70.943,19.503 L74.822,19.503 L74.822,23.381 L80.243,23.381 L80.243,19.503 L84.121,19.503 L84.121,14.083 Z M84.121,14.083" id="Shape"></path>
            </g>
        </g>
    </g>
</svg>