<?xml version="1.0" encoding="utf-8"?>
<!-- Generator: Adobe Illustrator 18.0.0, SVG Export Plug-In . SVG Version: 6.00 Build 0)  -->
<!DOCTYPE svg PUBLIC "-//W3C//DTD SVG 1.1//EN" "http://www.w3.org/Graphics/SVG/1.1/DTD/svg11.dtd">
<svg version="1.1" id="Layer_1" xmlns="http://www.w3.org/2000/svg" xmlns:xlink="http://www.w3.org/1999/xlink" x="0px" y="0px"
	 width="115.1px" height="115.2px" viewBox="0 0 115.1 115.2" enable-background="new 0 0 115.1 115.2" xml:space="preserve">
<g>
	<g>
		<linearGradient id="SVGID_1_" gradientUnits="userSpaceOnUse" x1="9.2" y1="65.4" x2="21.2" y2="65.4">
			<stop  offset="0" style="stop-color:#7DDCFF"/>
			<stop  offset="1" style="stop-color:#96FFD4"/>
		</linearGradient>
		<path fill="url(#SVGID_1_)" d="M10.2,48.4l11,40.7l-12-44.6l2.8-2.8C10.4,43.2,9.6,46.2,10.2,48.4z"/>
		<linearGradient id="SVGID_2_" gradientUnits="userSpaceOnUse" x1="21.2" y1="91.55" x2="26.1" y2="91.55">
			<stop  offset="0" style="stop-color:#7DDCFF"/>
			<stop  offset="1" style="stop-color:#96FFD4"/>
		</linearGradient>
		<path fill="url(#SVGID_2_)" d="M26.1,94l-3.9-1l-1-3.9C21.8,91.2,24,93.4,26.1,94z"/>
		<linearGradient id="SVGID_3_" gradientUnits="userSpaceOnUse" x1="26.1" y1="100" x2="73.5" y2="100">
			<stop  offset="0" style="stop-color:#7DDCFF"/>
			<stop  offset="1" style="stop-color:#96FFD4"/>
		</linearGradient>
		<path fill="url(#SVGID_3_)" d="M68.3,105.2c1.9,0,4-0.8,5.2-2l-2.8,2.8L26.1,94l40.7,11C67.3,105.1,67.8,105.2,68.3,105.2z"/>
		<linearGradient id="SVGID_4_" gradientUnits="userSpaceOnUse" x1="41.7" y1="15.1" x2="89.1" y2="15.1">
			<stop  offset="0" style="stop-color:#7DDCFF"/>
			<stop  offset="1" style="stop-color:#96FFD4"/>
		</linearGradient>
		<path fill="url(#SVGID_4_)" d="M44.5,9.1l44.6,12l-40.7-11c-0.5-0.1-1-0.2-1.5-0.2c-1.9,0-4,0.8-5.2,2L44.5,9.1z"/>
		<linearGradient id="SVGID_5_" gradientUnits="userSpaceOnUse" x1="89" y1="23.65" x2="93.9" y2="23.65">
			<stop  offset="0" style="stop-color:#7DDCFF"/>
			<stop  offset="1" style="stop-color:#96FFD4"/>
		</linearGradient>
		<path fill="url(#SVGID_5_)" d="M92.9,22.2l1,3.9c-0.6-2.1-2.8-4.3-4.9-4.9L92.9,22.2z"/>
		<linearGradient id="SVGID_6_" gradientUnits="userSpaceOnUse" x1="94" y1="49.8" x2="106" y2="49.8">
			<stop  offset="0" style="stop-color:#7DDCFF"/>
			<stop  offset="1" style="stop-color:#96FFD4"/>
		</linearGradient>
		<path fill="url(#SVGID_6_)" d="M103.2,73.5c1.5-1.6,2.4-4.6,1.8-6.7L94,26.1l12,44.6L103.2,73.5z"/>
		<linearGradient id="SVGID_7_" gradientUnits="userSpaceOnUse" x1="-2.375474e-02" y1="57.6" x2="115.1251" y2="57.6">
			<stop  offset="0" style="stop-color:#7DDCFF"/>
			<stop  offset="1" style="stop-color:#96FFD4"/>
		</linearGradient>
		<path fill="url(#SVGID_7_)" d="M114.6,64.2l-11-40.7c-1.5-5.5-6.4-10.5-12-11.9L51,0.5C49.7,0.2,48.3,0,46.9,0
			c-4.6,0-9.2,1.8-12.3,4.9L4.9,34.6C0.8,38.7-1,45.4,0.5,51l11,40.7c1.5,5.5,6.4,10.5,12,12l40.7,11c1.3,0.3,2.7,0.5,4.1,0.5
			c4.6,0,9.2-1.8,12.3-4.9l29.7-29.7C114.3,76.5,116.1,69.8,114.6,64.2z M73.5,103.2c-1.2,1.2-3.3,2-5.2,2c-0.5,0-1-0.1-1.5-0.2
			L26.1,94c-2.1-0.6-4.3-2.8-4.9-4.9l-11-40.7c-0.6-2.1,0.2-5.1,1.8-6.7L41.7,12c1.2-1.2,3.3-2,5.2-2c0.5,0,1,0.1,1.5,0.2l40.7,11
			c2.1,0.6,4.3,2.8,4.9,4.9l11,40.7c0.6,2.1-0.2,5.1-1.8,6.7L73.5,103.2z"/>
	</g>
	<g>
		<linearGradient id="SVGID_8_" gradientUnits="userSpaceOnUse" x1="36.4" y1="58.9" x2="76.1" y2="58.9">
			<stop  offset="0" style="stop-color:#7DDCFF"/>
			<stop  offset="1" style="stop-color:#96FFD4"/>
		</linearGradient>
		<path fill="url(#SVGID_8_)" d="M63.1,79.3v-4.1c-2.5,3-7.4,5.1-12.7,5.1c-6.3,0-14-4.2-14-13.4c0-9.9,7.8-13.1,14-13.1
			c5.4,0,10.2,1.7,12.7,4.7v-4.9c0-3.5-3-5.9-8.3-5.9c-4.1,0-8.3,1.5-11.6,4.3l-4.6-8.2c5.2-4.5,12.2-6.3,18.5-6.3
			c9.8,0,19,3.6,19,16.3v25.5H63.1z M63.1,68.8v-3.6c-1.4-1.9-4.4-2.9-7.3-2.9c-3.5,0-6.5,1.5-6.5,4.7s3,4.7,6.5,4.7
			C58.7,71.8,61.8,70.7,63.1,68.8z"/>
	</g>
</g>
</svg>
